# xmcd
#
# Track frame offsets: 
#        183
#        12443
#        24270
#        33958
#        44848
#        56838
#        69115
#        80338
#        89473
#        99900
#        110920
#        121943
#        133118
#        142375
#        152805
#        164633
#        174865
#        186533
#        200938
#        213933
#        226293
#        238513
#        247128
#        256285
#        267888
#        279468
#        289678
#
# Disc length: 4015 seconds
#
# Revision: 2
# Processed by: cddbd v1.5.2PL0 Copyright (c) Steve Scherf et al.
# Submitted via: ExactAudioCopyFreeDBPlugin 1.0
#
DISCID=960fad1b
DTITLE=King Curtis - Blow Man, Blow!:  The Capitol Years, 1962-1965 [B
DTITLE=ear Family box set]
DYEAR=1992
DGENRE=Rhythm and Blues
TTITLE0=Turn 'Em On (stereo)
TTITLE1=Beach Party
TTITLE2=Beautiful Brown Eyes
TTITLE3=Your Cheatin' Heart
TTITLE4=Tennessee Waltz
TTITLE5=Wagon Wheels
TTITLE6=High Noon
TTITLE7=Anytime
TTITLE8=Home on the Range
TTITLE9=Night Train to Memphis
TTITLE10=I'm Movin' On
TTITLE11=Raunchy
TTITLE12=Tumbling Tumbleweeds
TTITLE13=Walking the Floor Over You
TTITLE14=Slow Drag
TTITLE15=New Dance
TTITLE16=Frisky
TTITLE17=Alexander's Ragtime Band
TTITLE18=Amorosa (Bossa Nova)
TTITLE19=Strollin' Home
TTITLE20=Mess Around
TTITLE21=Sukiyaki
TTITLE22=Summer Dream
TTITLE23=Do the Monkey
TTITLE24=Feel All Right
TTITLE25=New Dance
TTITLE26=Turn 'Em On (mono)
EXTD=
EXTT0=
EXTT1=
EXTT2=
EXTT3=
EXTT4=
EXTT5=
EXTT6=
EXTT7=
EXTT8=
EXTT9=
EXTT10=
EXTT11=
EXTT12=
EXTT13=
EXTT14=
EXTT15=
EXTT16=
EXTT17=
EXTT18=
EXTT19=
EXTT20=
EXTT21=
EXTT22=
EXTT23=
EXTT24=
EXTT25=
EXTT26=
PLAYORDER=
